<svg xmlns="http://www.w3.org/2000/svg" xmlns:xlink="http://www.w3.org/1999/xlink" width="30" height="60" viewBox="0 0 30 60">
  <defs>
    <radialGradient id="radial-gradient" cx="0.5" cy="0.5" r="0.288" gradientTransform="translate(-1.637 -0.453) scale(2.278 2.276)" gradientUnits="objectBoundingBox">
      <stop offset="0" stop-color="#ff0a31"/>
      <stop offset="1" stop-color="#c60200"/>
    </radialGradient>
    <linearGradient id="linear-gradient" x1="-0.019" y1="-7.083" x2="1.019" y2="-7.083" gradientUnits="objectBoundingBox">
      <stop offset="0" stop-color="#ff0a31" stop-opacity="0.749"/>
      <stop offset="1" stop-color="#c60200" stop-opacity="0.749"/>
    </linearGradient>
    <linearGradient id="linear-gradient-2" x1="-0.019" y1="-7.182" x2="1.019" y2="-7.182" xlink:href="#linear-gradient"/>
    <radialGradient id="radial-gradient-2" cx="0.799" cy="0.602" fx="0.8134484887123108" fy="0.593747615814209" r="2.231" gradientTransform="translate(0.019) scale(0.962 1)" gradientUnits="objectBoundingBox">
      <stop offset="0" stop-color="#6b5635" stop-opacity="0.749"/>
      <stop offset="1" stop-color="#fff" stop-opacity="0.749"/>
    </radialGradient>
    <radialGradient id="radial-gradient-3" cx="0.277" cy="0.532" fx="0.2603609263896942" fy="0.5559847354888916" r="1.663" gradientTransform="translate(-0.018) scale(1.036 1)" xlink:href="#radial-gradient-2"/>
    <clipPath id="clip-carTop">
      <rect width="30" height="60"/>
    </clipPath>
  </defs>
  <g id="carTop" clip-path="url(#clip-carTop)">
    <g id="car-145008" transform="translate(-0.626 -0.373)">
      <path id="Path_1" data-name="Path 1" d="M33.653,2.078c10.863.381,14.157,1.875,12.954,17.839l-.567,1.322c.223,7.367.445,14.778,0,22.1.723.79.378,1.847.567,2.771a42.408,42.408,0,0,1,.126,9c-.526,7.342-8.176,6.671-12.53,6.8-4.853-.109-11.4,1.475-13.223-6.737a99.869,99.869,0,0,1,0-10.956l.5-.944c-.2-7.277-.45-14.421-.074-22.1l-.668-1.825C19.925,3.621,23.027,2.626,33.654,2.077Z" transform="translate(-18.756 -1.598)" stroke="#000" stroke-width="0.75" fill-rule="evenodd" fill="url(#radial-gradient)"/>
      <path id="Path_2" data-name="Path 2" d="M55.339,6.418c-2.309-4.6-7.577-5.163-12.593-5.289-5.331.231-9.529.336-12.216,5.982C31.265,4.97,30.551.625,42.809.373c11.124.21,11.8,3.19,12.53,6.045Z" transform="translate(-28.055)" fill="#bf0000" stroke="#000" stroke-width="0.75" fill-rule="evenodd"/>
      <path id="Path_3" data-name="Path 3" d="M62.092,167.632c4.974-5.646,16.119-6.129,20.968.063l-1.007,8.815c-4.576-1.028-11.8-2.12-18.827.315l-1.133-9.193Z" transform="translate(-57.664 -152.776)" fill="rgba(0,0,0,0.83)" stroke="#000" stroke-width="1.25" fill-rule="evenodd"/>
      <path id="Path_4" data-name="Path 4" d="M93.642,702.045c6.129.651,11.817,1.049,17.253-.315v9a15.658,15.658,0,0,1-17.127.189l-.126-8.878Z" transform="translate(-87.263 -657.973)" fill="rgba(0,0,0,0.83)" stroke="#000" stroke-width="1.25" fill-rule="evenodd"/>
      <path id="Path_5" data-name="Path 5" d="M431.656,292.01c1.438.661,1.679,2.2,1.228,2.55-.5-.052-1.259-.766-1.763-.882l-.031-.441C431.3,292.839,431.446,292.408,431.656,292.01Z" transform="translate(-403.836 -273.597)" stroke="#000" stroke-width="1.25" fill-rule="evenodd" fill="url(#linear-gradient)"/>
      <path id="Path_6" data-name="Path 6" d="M2.146,289.54c-1.465.6-1.774,2.128-1.339,2.494.506-.03,1.292-.71,1.8-.8l.051-.439c-.192-.408-.32-.844-.512-1.252Z" transform="translate(0 -271.28)" stroke="#000" stroke-width="1.25" fill-rule="evenodd" fill="url(#linear-gradient-2)"/>
      <path id="Path_7" data-name="Path 7" d="M365.872,45.163c-1.543.378-1.291,1.2.189,2.456,1.207.871,1.941,1.018,2.015-.315-.1-.777-1.878-2.057-2.2-2.141Z" transform="translate(-341.673 -42.02)" fill-rule="evenodd" fill="url(#radial-gradient-2)"/>
      <path id="Path_8" data-name="Path 8" d="M52.457,44.172c1.568.252,1.383,1.088.01,2.463-1.133.966-1.853,1.171-2.034-.151.042-.782,1.707-2.2,2.024-2.312Z" transform="translate(-46.727 -41.089)" stroke="#000" stroke-width="1.25" fill-rule="evenodd" fill="url(#radial-gradient-3)"/>
      <path id="Path_9" data-name="Path 9" d="M43.908,270.125a262.539,262.539,0,0,0-.126,26.32c.252,1.553.441,3.169.693,4.722.766-3.83,1.249-11.911.882-19.52-.325-4.093-.84-7.651-1.448-11.523Z" transform="translate(-40.236 -253.066)" fill="rgba(0,0,0,0.83)" stroke="#000" stroke-width="1.25" fill-rule="evenodd"/>
      <path id="Path_10" data-name="Path 10" d="M393.373,258.615a262.539,262.539,0,0,1,.126,26.32c-.252,1.553-.441,3.169-.693,4.723-.766-3.83-1.249-11.911-.882-19.52.325-4.093.84-7.65,1.448-11.523Z" transform="translate(-366.977 -242.268)" fill="rgba(0,0,0,0.83)" stroke="#000" stroke-width="1.25" fill-rule="evenodd"/>
      <path id="Path_11" data-name="Path 11" d="M193.21,896.825l5.12-.045-.134.534-4.72.044Z" transform="translate(-180.672 -840.958)" fill="rgba(0,0,0,0.58)" stroke="#000" stroke-width="1.25" fill-rule="evenodd"/>
      <path id="Path_12" data-name="Path 12" d="M363.423,957.189c0,.307-.468.557-1.046.557s-1.046-.249-1.046-.557.468-.557,1.046-.557,1.046.249,1.046.557Z" transform="translate(-347.234 -899.831)" fill="#29007d" stroke="#000" stroke-width="1.25" fill-rule="evenodd"/>
      <path id="Path_13" data-name="Path 13" d="M354.4,896.833c.341-.623,3.042-1.736,3.562-1.336.371,1.113-1.573,2.271-2.36,2.538A1.17,1.17,0,0,1,354.4,896.833Z" transform="translate(-331.892 -839.675)" fill="rgba(255,0,0,0.72)" stroke="#000" stroke-width="1.25" fill-rule="evenodd"/>
      <path id="Path_14" data-name="Path 14" d="M63.273,898.693c-.341-.623-3.042-1.736-3.562-1.336-.371,1.113,1.573,2.271,2.36,2.538A1.17,1.17,0,0,0,63.273,898.693Z" transform="translate(-55.387 -841.42)" fill="rgba(255,0,0,0.72)" stroke="#000" stroke-width="1.25" fill-rule="evenodd"/>
      <path id="Path_15" data-name="Path 15" d="M371.869,380.7a162.478,162.478,0,0,0-.668,19.59" transform="translate(-347.621 -356.801)" fill="none" stroke="rgba(0,0,0,0.65)" stroke-width="3.5"/>
      <path id="Path_16" data-name="Path 16" d="M80.92,384.3c.608,7.287.816,13.461.846,19.724" transform="translate(-75.328 -360.178)" fill="none" stroke="rgba(0,0,0,0.66)" stroke-width="2.75"/>
      <path id="Path_17" data-name="Path 17" d="M219.026,686.448c-.029-.063.015.137.027.2.025.134.055.268.089.4a10.955,10.955,0,0,0,.38,1.153l.107.266-.052.01-.111-.266a10.125,10.125,0,0,1-.657-1.768h.216Z" transform="translate(-204.688 -643.625)" fill="rgba(0,0,0,0.75)"/>
      <path id="Path_18" data-name="Path 18" d="M165.4,934.389a3.056,3.056,0,0,1-.267.979,52.794,52.794,0,0,0,9.172-.178,1.963,1.963,0,0,1-.356-.979,60.337,60.337,0,0,1-8.549.178Z" transform="translate(-154.33 -876.073)" fill="#e1bd23" stroke="#000" stroke-width="1.25" fill-rule="evenodd"/>
      <path id="Path_19" data-name="Path 19" d="M358.606,55.493c0,.33-.518.6-1.158.6s-1.158-.268-1.158-.6.518-.6,1.158-.6,1.158.268,1.158.6Z" transform="translate(-342.486 -53.208)" fill="#0a007d" stroke="#000" stroke-width="0.465" fill-rule="evenodd"/>
      <path id="Path_20" data-name="Path 20" d="M223.83,26.026h.156l.113-.522.134.345h.167l.136-.346.113.523h.156l-.176-.643h-.151l-.16.382-.16-.382h-.151l-.176.643Z" transform="translate(-209.397 -23.463)" fill="#fff"/>
      <path id="Path_21" data-name="Path 21" d="M61.583,33.689c.378-8.467,3.967-12.469,10.484-12.9,8.1.243,10.033,5.413,10.515,12.932" transform="translate(-57.187 -19.154)" fill="none" stroke="rgba(0,0,0,0.47)" stroke-width="2.434"/>
      <path id="Path_22" data-name="Path 22" d="M195.108,943.729v.042h-.418a.048.048,0,0,1,.009-.03.178.178,0,0,1,.051-.047.786.786,0,0,1,.1-.053.842.842,0,0,0,.139-.075q.036-.028.036-.052a.051.051,0,0,0-.033-.043.181.181,0,0,0-.086-.018.184.184,0,0,0-.09.019.058.058,0,0,0-.034.052l-.08,0a.1.1,0,0,1,.062-.076.33.33,0,0,1,.144-.026.31.31,0,0,1,.144.028.082.082,0,0,1,.053.07.068.068,0,0,1-.016.042.2.2,0,0,1-.051.043,1.256,1.256,0,0,1-.12.062q-.07.033-.09.044a.194.194,0,0,0-.033.023h.31Zm.1-.04.075,0a.069.069,0,0,0,.036.043.154.154,0,0,0,.069.013.2.2,0,0,0,.063-.009.127.127,0,0,0,.044-.024.119.119,0,0,0,.029-.041.128.128,0,0,0,.012-.053s0,0,0-.009a.174.174,0,0,1-.064.034.286.286,0,0,1-.087.013.259.259,0,0,1-.133-.032.1.1,0,0,1-.054-.084.1.1,0,0,1,.057-.086.281.281,0,0,1,.142-.033.329.329,0,0,1,.113.019.166.166,0,0,1,.078.053.16.16,0,0,1,.027.1.194.194,0,0,1-.026.108.163.163,0,0,1-.078.061.324.324,0,0,1-.122.021.277.277,0,0,1-.121-.023A.1.1,0,0,1,195.2,943.689Zm.318-.156a.067.067,0,0,0-.036-.059.161.161,0,0,0-.086-.022.168.168,0,0,0-.09.024.07.07,0,0,0-.038.061.062.062,0,0,0,.036.055.177.177,0,0,0,.09.021.169.169,0,0,0,.089-.021A.065.065,0,0,0,195.521,943.534Zm.162.144.078-.006a.092.092,0,0,0,.045.053.171.171,0,0,0,.078.016.187.187,0,0,0,.092-.021.061.061,0,0,0,.038-.052.057.057,0,0,0-.035-.049.183.183,0,0,0-.089-.019.393.393,0,0,0-.055,0l.009-.038h.012a.259.259,0,0,0,.089-.014c.026-.01.04-.024.04-.044a.046.046,0,0,0-.029-.039.156.156,0,0,0-.075-.016.16.16,0,0,0-.075.016.074.074,0,0,0-.039.048l-.078-.008a.114.114,0,0,1,.065-.067.292.292,0,0,1,.125-.024.345.345,0,0,1,.1.012.161.161,0,0,1,.067.034.062.062,0,0,1,.023.045.054.054,0,0,1-.022.042.163.163,0,0,1-.065.03.187.187,0,0,1,.087.03.068.068,0,0,1,.031.057c0,.031-.02.057-.06.078a.323.323,0,0,1-.153.032.306.306,0,0,1-.138-.028A.1.1,0,0,1,195.683,943.678Zm.5.012.075,0a.069.069,0,0,0,.036.043.154.154,0,0,0,.069.013.2.2,0,0,0,.063-.009.126.126,0,0,0,.044-.024.118.118,0,0,0,.029-.041.128.128,0,0,0,.012-.053s0,0,0-.009a.174.174,0,0,1-.064.034.287.287,0,0,1-.087.013.259.259,0,0,1-.133-.032.1.1,0,0,1-.054-.084.1.1,0,0,1,.057-.086.281.281,0,0,1,.142-.033.329.329,0,0,1,.113.019.166.166,0,0,1,.078.053.16.16,0,0,1,.027.1.194.194,0,0,1-.026.108.163.163,0,0,1-.078.061.324.324,0,0,1-.122.021.277.277,0,0,1-.121-.023A.1.1,0,0,1,196.186,943.689Zm.318-.156a.067.067,0,0,0-.036-.059.161.161,0,0,0-.086-.022.168.168,0,0,0-.09.024.07.07,0,0,0-.038.061.062.062,0,0,0,.036.055.177.177,0,0,0,.09.021.169.169,0,0,0,.089-.021A.065.065,0,0,0,196.5,943.534Zm.162.144.078-.006a.092.092,0,0,0,.045.053.171.171,0,0,0,.078.016.187.187,0,0,0,.092-.021.061.061,0,0,0,.038-.052.057.057,0,0,0-.035-.049.183.183,0,0,0-.089-.019.392.392,0,0,0-.055,0l.009-.038h.012a.259.259,0,0,0,.089-.014c.026-.01.04-.024.04-.044a.046.046,0,0,0-.029-.039.156.156,0,0,0-.075-.016.16.16,0,0,0-.075.016.074.074,0,0,0-.039.048l-.078-.008a.114.114,0,0,1,.065-.067.292.292,0,0,1,.125-.024.345.345,0,0,1,.1.012.161.161,0,0,1,.067.034.062.062,0,0,1,.023.045.054.054,0,0,1-.022.042.163.163,0,0,1-.065.03.187.187,0,0,1,.087.03.068.068,0,0,1,.031.057c0,.031-.02.057-.06.078a.323.323,0,0,1-.153.032.306.306,0,0,1-.138-.028A.1.1,0,0,1,196.666,943.678Zm.7.093.243-.353h.09l.259.353h-.1l-.074-.107h-.264l-.069.107Zm.182-.145h.214l-.066-.1a.734.734,0,0,1-.045-.073.312.312,0,0,1-.034.067Zm.473.145v-.353h.237a.506.506,0,0,1,.116.011.155.155,0,0,1,.069.033.063.063,0,0,1,.025.047.058.058,0,0,1-.022.043.162.162,0,0,1-.066.032.2.2,0,0,1,.088.032.065.065,0,0,1,.031.053.069.069,0,0,1-.019.046.125.125,0,0,1-.046.033.284.284,0,0,1-.069.017.747.747,0,0,1-.1.006Zm.084-.2h.137a.534.534,0,0,0,.08,0,.11.11,0,0,0,.048-.018.037.037,0,0,0,.016-.031.04.04,0,0,0-.015-.031.086.086,0,0,0-.043-.018.626.626,0,0,0-.1,0H198.1Zm0,.163h.157l.057,0a.214.214,0,0,0,.048-.01.08.08,0,0,0,.032-.02.041.041,0,0,0,.012-.03.043.043,0,0,0-.018-.034.111.111,0,0,0-.05-.02.55.55,0,0,0-.092-.006H198.1Zm1.125-.225-.077,0a.074.074,0,0,0-.029-.037.15.15,0,0,0-.078-.019.169.169,0,0,0-.065.012.132.132,0,0,0-.058.044.14.14,0,0,0-.022.082.18.18,0,0,1,.069-.035.306.306,0,0,1,.085-.012.258.258,0,0,1,.132.032.094.094,0,0,1,.055.082.091.091,0,0,1-.026.062.162.162,0,0,1-.07.044.317.317,0,0,1-.1.015.285.285,0,0,1-.158-.04.145.145,0,0,1-.061-.131.167.167,0,0,1,.068-.149.332.332,0,0,1,.281-.017.1.1,0,0,1,.057.064Zm-.317.152a.066.066,0,0,0,.017.043.1.1,0,0,0,.048.031.191.191,0,0,0,.064.011.156.156,0,0,0,.084-.022.068.068,0,0,0,.035-.06.064.064,0,0,0-.035-.058.168.168,0,0,0-.088-.021.177.177,0,0,0-.089.021.062.062,0,0,0-.037.055Zm.813.073v.042h-.418a.048.048,0,0,1,.009-.03.178.178,0,0,1,.051-.047.787.787,0,0,1,.1-.053.841.841,0,0,0,.139-.075q.036-.028.036-.052a.051.051,0,0,0-.033-.043.181.181,0,0,0-.086-.018.184.184,0,0,0-.09.019.058.058,0,0,0-.034.052l-.08,0a.1.1,0,0,1,.062-.076.33.33,0,0,1,.144-.026.31.31,0,0,1,.144.028.081.081,0,0,1,.053.07.068.068,0,0,1-.016.042.2.2,0,0,1-.051.043,1.257,1.257,0,0,1-.12.062q-.07.033-.09.044a.2.2,0,0,0-.033.023Z" transform="translate(-182.06 -884.71)"/>
      <path id="Path_23" data-name="Path 23" d="M80.15,762.9c-.3,6.946-4.245,11.22-10.508,10.686-5.373.178-10.478-3.117-11.042-9.884" transform="translate(-54.388 -715.359)" fill="none" stroke="rgba(0,0,0,0.53)" stroke-width="1.625"/>
    </g>
  </g>
</svg>
