<svg xmlns="http://www.w3.org/2000/svg" xmlns:xlink="http://www.w3.org/1999/xlink" width="50" height="50" viewBox="0 0 50 50">
  <defs>
    <clipPath id="clip-mod-vcl">
      <rect width="50" height="50"/>
    </clipPath>
  </defs>
  <g id="mod-vcl" clip-path="url(#clip-mod-vcl)">
    <g id="mid-vcl" transform="translate(1 4)">
      <path id="Path_56" data-name="Path 56" d="M3,28.3l13.1-7.5L44,34.8l-14,7Z" opacity="0.3"/>
      <path id="Path_57" data-name="Path 57" d="M5.3,25v3.8l2.5-1.3V23.8Z" fill="#2d3134"/>
      <path id="Path_58" data-name="Path 58" d="M5.3,25v3.8l2.5-1.3V23.8Z" opacity="0.39"/>
      <g id="Group_9" data-name="Group 9">
        <path id="Path_59" data-name="Path 59" d="M26.2,32.9a2.2,2.2,0,0,0-1.9-.2h0l-1.4.7h0A1.518,1.518,0,0,0,22,35a5.491,5.491,0,0,0,2.8,4.2,2.442,2.442,0,0,0,2,.2s1.4-.7,1.5-.8a1.579,1.579,0,0,0,.7-1.5A5.188,5.188,0,0,0,26.2,32.9Z" fill="#2d3134"/>
        <path id="Path_60" data-name="Path 60" d="M26.8,39.3c.2-.1,1.4-.7,1.5-.7a1.579,1.579,0,0,0,.7-1.5,4.486,4.486,0,0,0-.5-1.9l-1.4.7a4.486,4.486,0,0,1,.5,1.9A1.541,1.541,0,0,1,26.8,39.3Z" opacity="0.39"/>
        <path id="Path_61" data-name="Path 61" d="M26.9,37.4c0,1.2-.9,1.6-2.1,1a3.912,3.912,0,0,1-2.1-3.2c0-1.2.9-1.6,2.1-1A3.912,3.912,0,0,1,26.9,37.4Z" fill="#999"/>
        <path id="Path_62" data-name="Path 62" d="M25,38.4a3.912,3.912,0,0,1-2.1-3.2,1.209,1.209,0,0,1,.6-1.2,1.126,1.126,0,0,0-.8,1.2,3.912,3.912,0,0,0,2.1,3.2,1.624,1.624,0,0,0,1.5.1A1.515,1.515,0,0,1,25,38.4Z" opacity="0.15"/>
        <path id="Path_63" data-name="Path 63" d="M25.9,36.7c0,.5-.4.7-.9.4a1.681,1.681,0,0,1-.9-1.3c0-.5.4-.7.9-.4A1.681,1.681,0,0,1,25.9,36.7Z" fill="#2d3134"/>
        <path id="Path_64" data-name="Path 64" d="M25.9,36.7c0,.5-.4.7-.9.4a1.681,1.681,0,0,1-.9-1.3c0-.5.4-.7.9-.4A1.681,1.681,0,0,1,25.9,36.7Z" opacity="0.39"/>
        <path id="Path_65" data-name="Path 65" d="M25.7,36.8c0,.5-.4.7-.9.4a1.541,1.541,0,0,1-.9-1.3c0-.5.4-.7.9-.4A1.541,1.541,0,0,1,25.7,36.8Z" fill="#2d3134"/>
        <path id="Path_66" data-name="Path 66" d="M27.6,37.8c0,1.5-1.3,2.2-2.8,1.4A5.491,5.491,0,0,1,22,35c0-1.5,1.3-2.2,2.8-1.4A5.188,5.188,0,0,1,27.6,37.8Z" opacity="0.06"/>
      </g>
      <g id="Group_10" data-name="Group 10">
        <path id="Path_67" data-name="Path 67" d="M9.7,24.6a2.2,2.2,0,0,0-1.9-.2h0l-1.4.7h0a1.659,1.659,0,0,0-.9,1.6,5.491,5.491,0,0,0,2.8,4.2,2.442,2.442,0,0,0,2,.2s1.4-.7,1.5-.8a1.579,1.579,0,0,0,.7-1.5A5.491,5.491,0,0,0,9.7,24.6Z" fill="#2d3134"/>
        <path id="Path_68" data-name="Path 68" d="M10.3,31.1c.2-.1,1.4-.7,1.5-.7a1.579,1.579,0,0,0,.7-1.5A4.486,4.486,0,0,0,12,27l-1.4.7a4.486,4.486,0,0,1,.5,1.9A1.645,1.645,0,0,1,10.3,31.1Z" opacity="0.39"/>
        <path id="Path_69" data-name="Path 69" d="M10.4,29.2c0,1.2-.9,1.6-2.1,1A3.912,3.912,0,0,1,6.2,27c0-1.2.9-1.6,2.1-1A3.912,3.912,0,0,1,10.4,29.2Z" fill="#999"/>
        <path id="Path_70" data-name="Path 70" d="M8.5,30.1a3.912,3.912,0,0,1-2.1-3.2A1.209,1.209,0,0,1,7,25.7a1.126,1.126,0,0,0-.8,1.2,3.912,3.912,0,0,0,2.1,3.2,1.624,1.624,0,0,0,1.5.1A1.24,1.24,0,0,1,8.5,30.1Z" opacity="0.15"/>
        <path id="Path_71" data-name="Path 71" d="M9.4,28.5c0,.5-.4.7-.9.4a1.541,1.541,0,0,1-.9-1.3c0-.5.4-.7.9-.4A1.541,1.541,0,0,1,9.4,28.5Z" fill="#2d3134"/>
        <path id="Path_72" data-name="Path 72" d="M9.4,28.5c0,.5-.4.7-.9.4a1.541,1.541,0,0,1-.9-1.3c0-.5.4-.7.9-.4A1.541,1.541,0,0,1,9.4,28.5Z" opacity="0.39"/>
        <path id="Path_73" data-name="Path 73" d="M9.2,28.5c0,.5-.4.7-.9.4a1.681,1.681,0,0,1-.9-1.3c0-.5.4-.7.9-.4A1.853,1.853,0,0,1,9.2,28.5Z" fill="#2d3134"/>
        <path id="Path_74" data-name="Path 74" d="M11.1,29.5c0,1.5-1.3,2.2-2.8,1.4a5.491,5.491,0,0,1-2.8-4.2c0-1.5,1.3-2.2,2.8-1.4A5.491,5.491,0,0,1,11.1,29.5Z" opacity="0.06"/>
      </g>
      <path id="Path_75" data-name="Path 75" d="M17,1,3,8V23.3l18,9L35,25V10Z" fill="#f90"/>
      <path id="Path_76" data-name="Path 76" d="M3,22v2l18,9V31Z" fill="#2d3134"/>
      <path id="Path_77" data-name="Path 77" d="M35,24v2L21,33V31Z" fill="#2d3134"/>
      <path id="Path_78" data-name="Path 78" d="M3,8V24l18,9V17Z" opacity="0.06"/>
      <path id="Path_79" data-name="Path 79" d="M35,10V26L21,33V17Z" opacity="0.39"/>
      <path id="Path_80" data-name="Path 80" d="M42,18l-6-3L22,22V33.3a.442.442,0,0,0,.7.3h0c1.2-1,3.3-.3,4.8,1.5a5.348,5.348,0,0,1,1.3,3.3L30,39l14-7V24Z" fill="#e5e5e5"/>
      <path id="Path_81" data-name="Path 81" d="M30.4,30.5l-1.7-5c-.1-.2,0-.3.2-.4l12.5-6.2a.365.365,0,0,1,.5.2l1.6,4.7c.1.2,0,.3-.2.4L30.9,30.7C30.7,30.8,30.4,30.7,30.4,30.5Z" fill="#39c"/>
      <path id="Path_82" data-name="Path 82" d="M32.7,23.2l8.6-4.3a.365.365,0,0,1,.5.2l1.5,4.4Z" opacity="0.15"/>
      <path id="Path_83" data-name="Path 83" d="M43.4,23.8l-.1-.3c0,.2,0,.3-.2.4L30.7,30.4a.365.365,0,0,1-.5-.2l.1.3a.365.365,0,0,0,.5.2l12.4-6.5C43.4,24.1,43.5,24,43.4,23.8Z" fill="#2d3134"/>
      <path id="Path_84" data-name="Path 84" d="M33.5,30l7-3.5v5.8l-7,3.5Z" fill="#fff"/>
      <path id="Path_85" data-name="Path 85" d="M34,35l6-3V27.3l-6,3Z" fill="#2d3134"/>
      <path id="Path_86" data-name="Path 86" d="M44,32V30L30,37v2Z" fill="#2d3134"/>
      <path id="Path_87" data-name="Path 87" d="M28,38l2,1V37l-2-1Z" fill="#2d3134"/>
      <path id="Path_88" data-name="Path 88" d="M34,35v1l6-3V32Z" fill="#fff"/>
      <path id="Path_89" data-name="Path 89" d="M27.5,25.3l-3.8-1.9c-.1-.1-.3,0-.3.2v3c0,.2.1.4.3.4l1.3.7c.1.1.2.1.3.2l1.3,1.6h.1l2.2,1.1c.1.1.3-.1.2-.2l-1.7-5C27.6,25.4,27.6,25.3,27.5,25.3Z" fill="#39c"/>
      <path id="Path_90" data-name="Path 90" d="M29.3,30.3l-2-1h-.1l-1.3-1.6c-.1-.1-.2-.2-.3-.2l-1.3-.7c-.2-.1-.3-.2-.3-.4V23.5l-.2-.1c-.1-.1-.3,0-.3.2v3c0,.2.1.4.3.4l1.3.7c.1.1.2.1.3.2l1.3,1.6h.1L29,30.6q.3.15.3-.3Z" opacity="0.15"/>
      <path id="Path_91" data-name="Path 91" d="M30,35v2l-.5-.2v-2Z" fill="#fc0"/>
      <path id="Path_92" data-name="Path 92" d="M34,31v.3l6-3V28Z" fill="#e5e5e5"/>
      <path id="Path_93" data-name="Path 93" d="M34,32v.3l6-3V29Z" fill="#e5e5e5"/>
      <path id="Path_94" data-name="Path 94" d="M34,33v.3l6-3V30Z" fill="#e5e5e5"/>
      <path id="Path_95" data-name="Path 95" d="M34,34v.3l6-3V31Z" fill="#e5e5e5"/>
      <path id="Path_96" data-name="Path 96" d="M23.5,28.3v.5l1,.5v-.5Z" fill="#2d3134" opacity="0.5"/>
      <path id="Path_97" data-name="Path 97" d="M24.5,29.5l-1-.5v-.2l1,.5Z" fill="#fff" opacity="0.5"/>
      <path id="Path_98" data-name="Path 98" d="M37.5,23.9a.187.187,0,0,0-.3,0l-3.8,4.3a.212.212,0,1,0,.3.3l1-1.2v1H35V27h0l2.5-2.9C37.6,24.1,37.6,23.9,37.5,23.9Z" fill="#2d3134"/>
      <path id="Path_99" data-name="Path 99" d="M41.1,21.9a.187.187,0,0,0-.3,0L37,26.2a.212.212,0,1,0,.3.3l.9-1v1.1h.3V25.2l2.6-3A.187.187,0,0,0,41.1,21.9Z" fill="#2d3134"/>
      <path id="Path_100" data-name="Path 100" d="M42,31l2-1V28l-1,.5a1.781,1.781,0,0,0-1,1.6Z" fill="#fff"/>
      <ellipse id="Ellipse_5" data-name="Ellipse 5" cx="0.8" cy="0.5" rx="0.8" ry="0.5" transform="translate(43.655 29.257) rotate(129.144)" fill="#2d3134" opacity="0.3"/>
      <ellipse id="Ellipse_6" data-name="Ellipse 6" cx="0.8" cy="0.5" rx="0.8" ry="0.5" transform="translate(44.155 29.257) rotate(129.144)" fill="#2d3134" opacity="0.3"/>
      <path id="Path_101" data-name="Path 101" d="M42,31l2-1V28Z" fill="#fff" opacity="0.3"/>
      <path id="Path_102" data-name="Path 102" d="M30,37l2-1v-.9a.689.689,0,0,0-1-.6L30,35Z" fill="#fff"/>
      <ellipse id="Ellipse_7" data-name="Ellipse 7" cx="0.8" cy="0.5" rx="0.8" ry="0.5" transform="translate(32.155 35.256) rotate(129.144)" fill="#2d3134" opacity="0.3"/>
      <ellipse id="Ellipse_8" data-name="Ellipse 8" cx="0.8" cy="0.5" rx="0.8" ry="0.5" transform="translate(31.655 35.256) rotate(129.144)" fill="#2d3134" opacity="0.3"/>
      <path id="Path_103" data-name="Path 103" d="M30,37l2-1-2-1Z" fill="#fff" opacity="0.3"/>
      <path id="Path_104" data-name="Path 104" d="M28,25l-6-3V33.3a.442.442,0,0,0,.7.3h0c1.2-1,3.3-.3,4.8,1.5a2.075,2.075,0,0,1,.6,1L28,36v2l2,1h0V31Z" opacity="0.06"/>
      <path id="Path_105" data-name="Path 105" d="M42,18,28,25l2,6v8l14-7V24Z" opacity="0.39"/>
    </g>
  </g>
</svg>
