<svg xmlns="http://www.w3.org/2000/svg" viewBox="0 0 750 500"><g id="freepik--background-simple--inject-63"><path d="M692.33,150.78C675.12,113,649.12,80.13,610.71,61.73c-51.32-24.58-112.16-25.19-165.4-6.34C414.93,66.13,388,84.19,361.83,102.6,338.56,119,312,144,283.25,149.23c-38.94,7.16-130.94-50.84-199.94-34.84s-89,106-72,162,83,56,107,102,110,85,216,59,161-41,217-20,133,27,159-61a262.12,262.12,0,0,0,8.52-109C714.52,215.45,706.34,181.51,692.33,150.78Z" style="fill:#92E3A9"></path><path d="M692.33,150.78C675.12,113,649.12,80.13,610.71,61.73c-51.32-24.58-112.16-25.19-165.4-6.34C414.93,66.13,388,84.19,361.83,102.6,338.56,119,312,144,283.25,149.23c-38.94,7.16-130.94-50.84-199.94-34.84s-89,106-72,162,83,56,107,102,110,85,216,59,161-41,217-20,133,27,159-61a262.12,262.12,0,0,0,8.52-109C714.52,215.45,706.34,181.51,692.33,150.78Z" style="fill:#fff;opacity:0.7000000000000001"></path></g><g id="freepik--pipelines-2--inject-63"><path d="M723.73,173.17v-21H698.15V27.32H682.54V152.17H656.32V120.22a16.36,16.36,0,1,0-6,.22v31.73H353.09v-7.35H337.47v7.35H156.76v-7.35H141.14v7.35H111.48V103.36h9.58V94.07h10.41V77.71H121.06v-9.3h-9.58V46.29h6.61V30.67h-6.61v-10h-21V30.67h-6.6V46.29h6.6V162.67a10.5,10.5,0,0,0,10.5,10.5h40.16v57.09H94.29v-7.35H78.67v7.35H49V181.45h9.57v-9.3H69V155.79H58.59V146.5H49V124.37h6.6V108.76H49V21.37H28v87.39H21.41v15.61H28V240.76a10.5,10.5,0,0,0,10.5,10.5H78.67V455.73H94.29V251.26h46.85V456.07h15.62V251.26H275V456.09h15.62V251.26h46.85V455.51h15.62V251.26H682.54v5.86h15.61v-5.86H722v-21h-23.8V173.17ZM290.62,230.26v-7.35H275v7.35H156.76V173.17H337.47v57.09Zm391.92,0H353.09V173.17H682.54Z" style="fill:#263238"></path><line x1="653.13" y1="104.68" x2="657.12" y2="111.86" style="fill:none;stroke:#fff;stroke-miterlimit:10"></line><circle cx="653.13" cy="104.68" r="11.57" transform="translate(-5.89 161.51) rotate(-14.03)" style="fill:none;stroke:#fff;stroke-miterlimit:10"></circle></g><g id="freepik--pipelines-1--inject-63"><rect x="373.06" y="23.59" width="67.04" height="432.18" style="fill:#fff;stroke:#263238;stroke-linecap:round;stroke-linejoin:round"></rect><line x1="431.25" y1="95.16" x2="431.25" y2="163.01" style="fill:none;stroke:#263238;stroke-linecap:round;stroke-linejoin:round"></line><line x1="430.54" y1="57.71" x2="430.54" y2="52.76" style="fill:none;stroke:#263238;stroke-linecap:round;stroke-linejoin:round"></line><circle cx="439.4" cy="81.18" r="6.27" style="fill:#fff;stroke:#263238;stroke-linecap:round;stroke-linejoin:round"></circle><circle cx="422.99" cy="81.18" r="6.27" style="fill:#fff;stroke:#263238;stroke-linecap:round;stroke-linejoin:round"></circle><circle cx="406.59" cy="81.18" r="6.27" style="fill:#fff;stroke:#263238;stroke-linecap:round;stroke-linejoin:round"></circle><circle cx="390.19" cy="81.18" r="6.27" style="fill:#fff;stroke:#263238;stroke-linecap:round;stroke-linejoin:round"></circle><circle cx="373.78" cy="81.18" r="6.27" style="fill:#fff;stroke:#263238;stroke-linecap:round;stroke-linejoin:round"></circle><path d="M439.4,74.92a6.27,6.27,0,1,1,6.26-6.27A6.27,6.27,0,0,1,439.4,74.92Z" style="fill:#fff;stroke:#263238;stroke-linecap:round;stroke-linejoin:round"></path><path d="M423,74.92a6.27,6.27,0,1,1,6.27-6.27A6.27,6.27,0,0,1,423,74.92Z" style="fill:#fff;stroke:#263238;stroke-linecap:round;stroke-linejoin:round"></path><path d="M406.59,74.92a6.27,6.27,0,1,1,6.27-6.27A6.27,6.27,0,0,1,406.59,74.92Z" style="fill:#fff;stroke:#263238;stroke-linecap:round;stroke-linejoin:round"></path><path d="M390.19,74.92a6.27,6.27,0,1,1,6.26-6.27A6.27,6.27,0,0,1,390.19,74.92Z" style="fill:#fff;stroke:#263238;stroke-linecap:round;stroke-linejoin:round"></path><path d="M373.78,74.92a6.27,6.27,0,1,1,6.27-6.27A6.27,6.27,0,0,1,373.78,74.92Z" style="fill:#fff;stroke:#263238;stroke-linecap:round;stroke-linejoin:round"></path><rect x="398.91" y="33.22" width="15.84" height="83.14" transform="translate(481.61 -332.04) rotate(90)" style="fill:#fff;stroke:#263238;stroke-linecap:round;stroke-linejoin:round"></rect><line x1="448.1" y1="74.51" x2="365.54" y2="74.51" style="fill:none;stroke:#263238;stroke-linecap:round;stroke-linejoin:round"></line><path d="M439.4,226.52a6.27,6.27,0,1,1,6.26-6.27A6.27,6.27,0,0,1,439.4,226.52Z" style="fill:#fff;stroke:#263238;stroke-linecap:round;stroke-linejoin:round"></path><path d="M423,226.52a6.27,6.27,0,1,1,6.27-6.27A6.27,6.27,0,0,1,423,226.52Z" style="fill:#fff;stroke:#263238;stroke-linecap:round;stroke-linejoin:round"></path><path d="M406.59,226.52a6.27,6.27,0,1,1,6.27-6.27A6.27,6.27,0,0,1,406.59,226.52Z" style="fill:#fff;stroke:#263238;stroke-linecap:round;stroke-linejoin:round"></path><path d="M390.19,226.52a6.27,6.27,0,1,1,6.26-6.27A6.27,6.27,0,0,1,390.19,226.52Z" style="fill:#fff;stroke:#263238;stroke-linecap:round;stroke-linejoin:round"></path><path d="M373.78,226.52a6.27,6.27,0,1,1,6.27-6.27A6.27,6.27,0,0,1,373.78,226.52Z" style="fill:#fff;stroke:#263238;stroke-linecap:round;stroke-linejoin:round"></path><circle cx="439.4" cy="207.72" r="6.27" style="fill:#fff;stroke:#263238;stroke-linecap:round;stroke-linejoin:round"></circle><circle cx="422.99" cy="207.72" r="6.27" style="fill:#fff;stroke:#263238;stroke-linecap:round;stroke-linejoin:round"></circle><circle cx="406.59" cy="207.72" r="6.27" style="fill:#fff;stroke:#263238;stroke-linecap:round;stroke-linejoin:round"></circle><circle cx="390.19" cy="207.72" r="6.27" style="fill:#fff;stroke:#263238;stroke-linecap:round;stroke-linejoin:round"></circle><circle cx="373.78" cy="207.72" r="6.27" style="fill:#fff;stroke:#263238;stroke-linecap:round;stroke-linejoin:round"></circle><rect x="398.91" y="172.28" width="15.84" height="83.14" transform="translate(620.68 -192.97) rotate(90)" style="fill:#fff;stroke:#263238;stroke-linecap:round;stroke-linejoin:round"></rect><line x1="448.1" y1="213.58" x2="365.54" y2="213.58" style="fill:none;stroke:#263238;stroke-linecap:round;stroke-linejoin:round"></line><circle cx="439.4" cy="408.4" r="6.27" style="fill:#fff;stroke:#263238;stroke-linecap:round;stroke-linejoin:round"></circle><circle cx="422.99" cy="408.4" r="6.27" style="fill:#fff;stroke:#263238;stroke-linecap:round;stroke-linejoin:round"></circle><circle cx="406.59" cy="408.4" r="6.27" style="fill:#fff;stroke:#263238;stroke-linecap:round;stroke-linejoin:round"></circle><circle cx="390.19" cy="408.4" r="6.27" style="fill:#fff;stroke:#263238;stroke-linecap:round;stroke-linejoin:round"></circle><circle cx="373.78" cy="408.4" r="6.27" style="fill:#fff;stroke:#263238;stroke-linecap:round;stroke-linejoin:round"></circle><path d="M439.4,402.13a6.27,6.27,0,1,1,6.26-6.26A6.27,6.27,0,0,1,439.4,402.13Z" style="fill:#fff;stroke:#263238;stroke-linecap:round;stroke-linejoin:round"></path><path d="M423,402.13a6.27,6.27,0,1,1,6.27-6.26A6.26,6.26,0,0,1,423,402.13Z" style="fill:#fff;stroke:#263238;stroke-linecap:round;stroke-linejoin:round"></path><path d="M406.59,402.13a6.27,6.27,0,1,1,6.27-6.26A6.27,6.27,0,0,1,406.59,402.13Z" style="fill:#fff;stroke:#263238;stroke-linecap:round;stroke-linejoin:round"></path><path d="M390.19,402.13a6.27,6.27,0,1,1,6.26-6.26A6.27,6.27,0,0,1,390.19,402.13Z" style="fill:#fff;stroke:#263238;stroke-linecap:round;stroke-linejoin:round"></path><path d="M373.78,402.13a6.27,6.27,0,1,1,6.27-6.26A6.26,6.26,0,0,1,373.78,402.13Z" style="fill:#fff;stroke:#263238;stroke-linecap:round;stroke-linejoin:round"></path><rect x="398.91" y="360.43" width="15.84" height="83.14" transform="translate(808.83 -4.82) rotate(90)" style="fill:#fff;stroke:#263238;stroke-linecap:round;stroke-linejoin:round"></rect><line x1="448.1" y1="401.73" x2="365.54" y2="401.73" style="fill:none;stroke:#263238;stroke-linecap:round;stroke-linejoin:round"></line><rect x="303.59" y="23.01" width="17.3" height="432.4" style="fill:#fff;stroke:#263238;stroke-linecap:round;stroke-linejoin:round"></rect><circle cx="302.43" cy="169.9" r="1.85" style="fill:#fff;stroke:#263238;stroke-linecap:round;stroke-linejoin:round"></circle><circle cx="307.29" cy="169.9" r="1.85" style="fill:#fff;stroke:#263238;stroke-linecap:round;stroke-linejoin:round"></circle><circle cx="312.14" cy="169.9" r="1.85" style="fill:#fff;stroke:#263238;stroke-linecap:round;stroke-linejoin:round"></circle><circle cx="316.99" cy="169.9" r="1.85" style="fill:#fff;stroke:#263238;stroke-linecap:round;stroke-linejoin:round"></circle><circle cx="321.84" cy="169.9" r="1.85" style="fill:#fff;stroke:#263238;stroke-linecap:round;stroke-linejoin:round"></circle><circle cx="302.43" cy="173.6" r="1.85" style="fill:#fff;stroke:#263238;stroke-linecap:round;stroke-linejoin:round"></circle><circle cx="307.29" cy="173.6" r="1.85" style="fill:#fff;stroke:#263238;stroke-linecap:round;stroke-linejoin:round"></circle><circle cx="312.14" cy="173.6" r="1.85" style="fill:#fff;stroke:#263238;stroke-linecap:round;stroke-linejoin:round"></circle><circle cx="316.99" cy="173.6" r="1.85" style="fill:#fff;stroke:#263238;stroke-linecap:round;stroke-linejoin:round"></circle><circle cx="321.84" cy="173.6" r="1.85" style="fill:#fff;stroke:#263238;stroke-linecap:round;stroke-linejoin:round"></circle><rect x="309.72" y="159.5" width="4.68" height="24.58" transform="translate(140.28 483.85) rotate(-90)" style="fill:#fff;stroke:#263238;stroke-linecap:round;stroke-linejoin:round"></rect><line x1="299.86" y1="171.87" x2="324.27" y2="171.87" style="fill:none;stroke:#263238;stroke-linecap:round;stroke-linejoin:round"></line><circle cx="302.43" cy="68.62" r="1.85" style="fill:#fff;stroke:#263238;stroke-linecap:round;stroke-linejoin:round"></circle><circle cx="307.29" cy="68.62" r="1.85" style="fill:#fff;stroke:#263238;stroke-linecap:round;stroke-linejoin:round"></circle><circle cx="312.14" cy="68.62" r="1.85" style="fill:#fff;stroke:#263238;stroke-linecap:round;stroke-linejoin:round"></circle><circle cx="316.99" cy="68.62" r="1.85" style="fill:#fff;stroke:#263238;stroke-linecap:round;stroke-linejoin:round"></circle><circle cx="321.84" cy="68.62" r="1.85" style="fill:#fff;stroke:#263238;stroke-linecap:round;stroke-linejoin:round"></circle><circle cx="302.43" cy="72.32" r="1.85" style="fill:#fff;stroke:#263238;stroke-linecap:round;stroke-linejoin:round"></circle><circle cx="307.29" cy="72.32" r="1.85" style="fill:#fff;stroke:#263238;stroke-linecap:round;stroke-linejoin:round"></circle><circle cx="312.14" cy="72.32" r="1.85" style="fill:#fff;stroke:#263238;stroke-linecap:round;stroke-linejoin:round"></circle><circle cx="316.99" cy="72.32" r="1.85" style="fill:#fff;stroke:#263238;stroke-linecap:round;stroke-linejoin:round"></circle><circle cx="321.84" cy="72.32" r="1.85" style="fill:#fff;stroke:#263238;stroke-linecap:round;stroke-linejoin:round"></circle><rect x="309.72" y="58.22" width="4.68" height="24.58" transform="translate(241.56 382.57) rotate(-90)" style="fill:#fff;stroke:#263238;stroke-linecap:round;stroke-linejoin:round"></rect><line x1="299.86" y1="70.59" x2="324.27" y2="70.59" style="fill:none;stroke:#263238;stroke-linecap:round;stroke-linejoin:round"></line><circle cx="302.43" cy="210.71" r="1.85" style="fill:#fff;stroke:#263238;stroke-linecap:round;stroke-linejoin:round"></circle><circle cx="307.29" cy="210.71" r="1.85" style="fill:#fff;stroke:#263238;stroke-linecap:round;stroke-linejoin:round"></circle><circle cx="312.14" cy="210.71" r="1.85" style="fill:#fff;stroke:#263238;stroke-linecap:round;stroke-linejoin:round"></circle><circle cx="316.99" cy="210.71" r="1.85" style="fill:#fff;stroke:#263238;stroke-linecap:round;stroke-linejoin:round"></circle><circle cx="321.84" cy="210.71" r="1.85" style="fill:#fff;stroke:#263238;stroke-linecap:round;stroke-linejoin:round"></circle><circle cx="302.43" cy="214.42" r="1.85" style="fill:#fff;stroke:#263238;stroke-linecap:round;stroke-linejoin:round"></circle><circle cx="307.29" cy="214.42" r="1.85" style="fill:#fff;stroke:#263238;stroke-linecap:round;stroke-linejoin:round"></circle><circle cx="312.14" cy="214.42" r="1.85" style="fill:#fff;stroke:#263238;stroke-linecap:round;stroke-linejoin:round"></circle><circle cx="316.99" cy="214.42" r="1.85" style="fill:#fff;stroke:#263238;stroke-linecap:round;stroke-linejoin:round"></circle><circle cx="321.84" cy="214.42" r="1.85" style="fill:#fff;stroke:#263238;stroke-linecap:round;stroke-linejoin:round"></circle><rect x="309.72" y="200.31" width="4.68" height="24.58" transform="translate(99.46 524.67) rotate(-90)" style="fill:#fff;stroke:#263238;stroke-linecap:round;stroke-linejoin:round"></rect><line x1="299.86" y1="212.69" x2="324.27" y2="212.69" style="fill:none;stroke:#263238;stroke-linecap:round;stroke-linejoin:round"></line><ellipse cx="306.56" cy="124.73" rx="18.75" ry="26.43" style="fill:#fff;stroke:#263238;stroke-linecap:round;stroke-linejoin:round"></ellipse><ellipse cx="300.84" cy="124.73" rx="18.75" ry="26.43" style="fill:#fff;stroke:#263238;stroke-linecap:round;stroke-linejoin:round"></ellipse><path d="M298.51,110.07h-9.89v9.74a20.23,20.23,0,0,0,0,10.25v9.74h9.89c5.82,0,10.54-6.65,10.54-14.86S304.33,110.07,298.51,110.07Z" style="fill:#fff;stroke:#263238;stroke-linecap:round;stroke-linejoin:round"></path><ellipse cx="288.62" cy="124.94" rx="10.54" ry="14.86" style="fill:#fff;stroke:#263238;stroke-linecap:round;stroke-linejoin:round"></ellipse><rect x="604.1" y="239.11" width="22.96" height="33.26" style="fill:#fff;stroke:#263238;stroke-linecap:round;stroke-linejoin:round"></rect><rect x="591.43" y="226.44" width="46.72" height="29.3" style="fill:#fff;stroke:#263238;stroke-linecap:round;stroke-linejoin:round"></rect><circle cx="615.18" cy="210.61" r="25.93" style="fill:#fff;stroke:#263238;stroke-linecap:round;stroke-linejoin:round"></circle><circle cx="615.18" cy="210.61" r="39.59" style="fill:none;stroke:#263238;stroke-linecap:round;stroke-linejoin:round;stroke-width:4px"></circle><path d="M621.64,210.61a6.46,6.46,0,1,0-6.46,6.45A6.46,6.46,0,0,0,621.64,210.61Z" style="fill:none;stroke:#263238;stroke-linecap:round;stroke-linejoin:round;stroke-width:4px"></path><line x1="615.18" y1="171.02" x2="615.18" y2="249.4" style="fill:none;stroke:#263238;stroke-linecap:round;stroke-linejoin:round;stroke-width:4px"></line><line x1="575.59" y1="210.61" x2="654.77" y2="210.61" style="fill:none;stroke:#263238;stroke-linecap:round;stroke-linejoin:round;stroke-width:4px"></line><path d="M10.42,266.29H645a83,83,0,0,1,82.89,82.89V455.77h-67V349.18A15.9,15.9,0,0,0,645,333.29H10.42" style="fill:#fff;stroke:#263238;stroke-linecap:round;stroke-linejoin:round"></path><line x1="307.63" y1="326.67" x2="324.94" y2="326.67" style="fill:none;stroke:#263238;stroke-linecap:round;stroke-linejoin:round"></line><line x1="240.58" y1="326.67" x2="303.19" y2="326.67" style="fill:none;stroke:#263238;stroke-linecap:round;stroke-linejoin:round"></line><line x1="540.42" y1="326.67" x2="557.73" y2="326.67" style="fill:none;stroke:#263238;stroke-linecap:round;stroke-linejoin:round"></line><line x1="379.56" y1="326.67" x2="535.98" y2="326.67" style="fill:none;stroke:#263238;stroke-linecap:round;stroke-linejoin:round"></line><path d="M595.1,269.19a6.27,6.27,0,1,1-6.27-6.26A6.27,6.27,0,0,1,595.1,269.19Z" style="fill:#fff;stroke:#263238;stroke-linecap:round;stroke-linejoin:round"></path><path d="M595.1,285.6a6.27,6.27,0,1,1-6.27-6.27A6.27,6.27,0,0,1,595.1,285.6Z" style="fill:#fff;stroke:#263238;stroke-linecap:round;stroke-linejoin:round"></path><path d="M595.1,302a6.27,6.27,0,1,1-6.27-6.26A6.27,6.27,0,0,1,595.1,302Z" style="fill:#fff;stroke:#263238;stroke-linecap:round;stroke-linejoin:round"></path><path d="M595.1,318.41a6.27,6.27,0,1,1-6.27-6.27A6.27,6.27,0,0,1,595.1,318.41Z" style="fill:#fff;stroke:#263238;stroke-linecap:round;stroke-linejoin:round"></path><path d="M595.1,334.81a6.27,6.27,0,1,1-6.27-6.27A6.27,6.27,0,0,1,595.1,334.81Z" style="fill:#fff;stroke:#263238;stroke-linecap:round;stroke-linejoin:round"></path><circle cx="576.3" cy="269.19" r="6.27" style="fill:#fff;stroke:#263238;stroke-linecap:round;stroke-linejoin:round"></circle><circle cx="576.3" cy="285.6" r="6.27" style="fill:#fff;stroke:#263238;stroke-linecap:round;stroke-linejoin:round"></circle><circle cx="576.3" cy="302" r="6.27" style="fill:#fff;stroke:#263238;stroke-linecap:round;stroke-linejoin:round"></circle><circle cx="576.3" cy="318.41" r="6.27" style="fill:#fff;stroke:#263238;stroke-linecap:round;stroke-linejoin:round"></circle><circle cx="576.3" cy="334.81" r="6.27" style="fill:#fff;stroke:#263238;stroke-linecap:round;stroke-linejoin:round"></circle><rect x="574.52" y="260.2" width="15.84" height="83.14" style="fill:#fff;stroke:#263238;stroke-linecap:round;stroke-linejoin:round"></rect><line x1="582.16" y1="260.49" x2="582.16" y2="343.05" style="fill:none;stroke:#263238;stroke-linecap:round;stroke-linejoin:round"></line><circle cx="649.81" cy="269.19" r="6.27" style="fill:#fff;stroke:#263238;stroke-linecap:round;stroke-linejoin:round"></circle><circle cx="649.81" cy="285.6" r="6.27" style="fill:#fff;stroke:#263238;stroke-linecap:round;stroke-linejoin:round"></circle><circle cx="649.81" cy="302" r="6.27" style="fill:#fff;stroke:#263238;stroke-linecap:round;stroke-linejoin:round"></circle><circle cx="649.81" cy="318.41" r="6.27" style="fill:#fff;stroke:#263238;stroke-linecap:round;stroke-linejoin:round"></circle><circle cx="649.81" cy="334.81" r="6.27" style="fill:#fff;stroke:#263238;stroke-linecap:round;stroke-linejoin:round"></circle><path d="M643.55,269.19a6.27,6.27,0,1,1-6.27-6.26A6.27,6.27,0,0,1,643.55,269.19Z" style="fill:#fff;stroke:#263238;stroke-linecap:round;stroke-linejoin:round"></path><path d="M643.55,285.6a6.27,6.27,0,1,1-6.27-6.27A6.27,6.27,0,0,1,643.55,285.6Z" style="fill:#fff;stroke:#263238;stroke-linecap:round;stroke-linejoin:round"></path><path d="M643.55,302a6.27,6.27,0,1,1-6.27-6.26A6.27,6.27,0,0,1,643.55,302Z" style="fill:#fff;stroke:#263238;stroke-linecap:round;stroke-linejoin:round"></path><path d="M643.55,318.41a6.27,6.27,0,1,1-6.27-6.27A6.27,6.27,0,0,1,643.55,318.41Z" style="fill:#fff;stroke:#263238;stroke-linecap:round;stroke-linejoin:round"></path><path d="M643.55,334.81a6.27,6.27,0,1,1-6.27-6.27A6.27,6.27,0,0,1,643.55,334.81Z" style="fill:#fff;stroke:#263238;stroke-linecap:round;stroke-linejoin:round"></path><rect x="635.5" y="260.2" width="15.84" height="83.14" style="fill:#fff;stroke:#263238;stroke-linecap:round;stroke-linejoin:round"></rect><line x1="643.15" y1="260.49" x2="643.15" y2="343.05" style="fill:none;stroke:#263238;stroke-linecap:round;stroke-linejoin:round"></line><circle cx="359.04" cy="269.19" r="6.27" style="fill:#fff;stroke:#263238;stroke-linecap:round;stroke-linejoin:round"></circle><circle cx="359.04" cy="285.6" r="6.27" style="fill:#fff;stroke:#263238;stroke-linecap:round;stroke-linejoin:round"></circle><circle cx="359.04" cy="302" r="6.27" style="fill:#fff;stroke:#263238;stroke-linecap:round;stroke-linejoin:round"></circle><circle cx="359.04" cy="318.41" r="6.27" style="fill:#fff;stroke:#263238;stroke-linecap:round;stroke-linejoin:round"></circle><circle cx="359.04" cy="334.81" r="6.27" style="fill:#fff;stroke:#263238;stroke-linecap:round;stroke-linejoin:round"></circle><path d="M352.77,269.19a6.27,6.27,0,1,1-6.26-6.26A6.27,6.27,0,0,1,352.77,269.19Z" style="fill:#fff;stroke:#263238;stroke-linecap:round;stroke-linejoin:round"></path><path d="M352.77,285.6a6.27,6.27,0,1,1-6.26-6.27A6.26,6.26,0,0,1,352.77,285.6Z" style="fill:#fff;stroke:#263238;stroke-linecap:round;stroke-linejoin:round"></path><path d="M352.77,302a6.27,6.27,0,1,1-6.26-6.26A6.27,6.27,0,0,1,352.77,302Z" style="fill:#fff;stroke:#263238;stroke-linecap:round;stroke-linejoin:round"></path><path d="M352.77,318.41a6.27,6.27,0,1,1-6.26-6.27A6.26,6.26,0,0,1,352.77,318.41Z" style="fill:#fff;stroke:#263238;stroke-linecap:round;stroke-linejoin:round"></path><path d="M352.77,334.81a6.27,6.27,0,1,1-6.26-6.27A6.27,6.27,0,0,1,352.77,334.81Z" style="fill:#fff;stroke:#263238;stroke-linecap:round;stroke-linejoin:round"></path><rect x="344.72" y="260.2" width="15.84" height="83.14" style="fill:#fff;stroke:#263238;stroke-linecap:round;stroke-linejoin:round"></rect><line x1="352.37" y1="260.49" x2="352.37" y2="343.05" style="fill:none;stroke:#263238;stroke-linecap:round;stroke-linejoin:round"></line><circle cx="137.67" cy="269.19" r="6.27" style="fill:#fff;stroke:#263238;stroke-linecap:round;stroke-linejoin:round"></circle><circle cx="137.67" cy="285.6" r="6.27" style="fill:#fff;stroke:#263238;stroke-linecap:round;stroke-linejoin:round"></circle><circle cx="137.67" cy="302" r="6.27" style="fill:#fff;stroke:#263238;stroke-linecap:round;stroke-linejoin:round"></circle><circle cx="137.67" cy="318.41" r="6.27" style="fill:#fff;stroke:#263238;stroke-linecap:round;stroke-linejoin:round"></circle><circle cx="137.67" cy="334.81" r="6.27" style="fill:#fff;stroke:#263238;stroke-linecap:round;stroke-linejoin:round"></circle><circle cx="125.14" cy="269.19" r="6.27" style="fill:#fff;stroke:#263238;stroke-linecap:round;stroke-linejoin:round"></circle><circle cx="125.14" cy="285.6" r="6.27" style="fill:#fff;stroke:#263238;stroke-linecap:round;stroke-linejoin:round"></circle><circle cx="125.14" cy="302" r="6.27" style="fill:#fff;stroke:#263238;stroke-linecap:round;stroke-linejoin:round"></circle><circle cx="125.14" cy="318.41" r="6.27" style="fill:#fff;stroke:#263238;stroke-linecap:round;stroke-linejoin:round"></circle><circle cx="125.14" cy="334.81" r="6.27" style="fill:#fff;stroke:#263238;stroke-linecap:round;stroke-linejoin:round"></circle><rect x="123.36" y="260.2" width="15.84" height="83.14" style="fill:#fff;stroke:#263238;stroke-linecap:round;stroke-linejoin:round"></rect><line x1="131" y1="260.49" x2="131" y2="343.05" style="fill:none;stroke:#263238;stroke-linecap:round;stroke-linejoin:round"></line><circle cx="727.24" cy="398.34" r="6.27" style="fill:#fff;stroke:#263238;stroke-linecap:round;stroke-linejoin:round"></circle><circle cx="710.84" cy="398.34" r="6.27" style="fill:#fff;stroke:#263238;stroke-linecap:round;stroke-linejoin:round"></circle><circle cx="694.43" cy="398.34" r="6.27" style="fill:#fff;stroke:#263238;stroke-linecap:round;stroke-linejoin:round"></circle><circle cx="678.03" cy="398.34" r="6.27" style="fill:#fff;stroke:#263238;stroke-linecap:round;stroke-linejoin:round"></circle><circle cx="661.62" cy="398.34" r="6.27" style="fill:#fff;stroke:#263238;stroke-linecap:round;stroke-linejoin:round"></circle><circle cx="727.24" cy="385.81" r="6.27" style="fill:#fff;stroke:#263238;stroke-linecap:round;stroke-linejoin:round"></circle><circle cx="710.84" cy="385.81" r="6.27" style="fill:#fff;stroke:#263238;stroke-linecap:round;stroke-linejoin:round"></circle><circle cx="694.43" cy="385.81" r="6.27" style="fill:#fff;stroke:#263238;stroke-linecap:round;stroke-linejoin:round"></circle><circle cx="678.03" cy="385.81" r="6.27" style="fill:#fff;stroke:#263238;stroke-linecap:round;stroke-linejoin:round"></circle><circle cx="661.62" cy="385.81" r="6.27" style="fill:#fff;stroke:#263238;stroke-linecap:round;stroke-linejoin:round"></circle><rect x="686.75" y="350.38" width="15.84" height="83.14" transform="translate(1086.61 -302.72) rotate(90)" style="fill:#fff;stroke:#263238;stroke-linecap:round;stroke-linejoin:round"></rect><line x1="735.94" y1="391.67" x2="653.38" y2="391.67" style="fill:none;stroke:#263238;stroke-linecap:round;stroke-linejoin:round"></line></g><g id="freepik--Floor--inject-63"><line x1="621.72" y1="455.68" x2="732.36" y2="455.68" style="fill:none;stroke:#263238;stroke-miterlimit:10"></line><line x1="32.57" y1="455.68" x2="613.54" y2="455.68" style="fill:none;stroke:#263238;stroke-miterlimit:10"></line></g><g id="freepik--character-2--inject-63"><path d="M509.38,186.44l-8.64,25.93-3.21.32-1.92,3.2L479,203.73v27.21l22.41,11.84a68.33,68.33,0,0,0,7.68-3.2c2.24-1.28,6.08-58.58,6.08-58.58Z" style="fill:#92E3A9;stroke:#263238;stroke-linecap:round;stroke-linejoin:round"></path><path d="M563.32,444.71s6,19,5.77,22.09-1.2,3.85-2.89,4.33-13.44-.48-13.44-.48l-.72-24.5Z" style="fill:#fff;stroke:#263238;stroke-linecap:round;stroke-linejoin:round"></path><path d="M569.09,466.8v-.29c-5.14.26-13.24.74-16.43.93l.1,3.21s11.76,1,13.44.48S568.85,469.92,569.09,466.8Z" style="fill:#fff;stroke:#263238;stroke-linecap:round;stroke-linejoin:round"></path><path d="M558.28,420.94s.48,8.41,3.36,15.13,2.88,8.64,1.44,10.08-7.92,2.41-10.56,2.89-1.92-7.93-1.92-13.21S556.36,419.5,558.28,420.94Z" style="fill:#92E3A9;stroke:#263238;stroke-linecap:round;stroke-linejoin:round"></path><path d="M526.59,440.39s-5.77,8.17-9.13,11.05-8.64,6.24-14.4,9.84-5.53,3.6-5.05,6,3.85,4.57,7,4.57h49.46s3.84-1.44,2.64-9.85-2.4-19.93-2.4-19.93Z" style="fill:#fff;stroke:#263238;stroke-linecap:round;stroke-linejoin:round"></path><path d="M557,468.05c-9.59.14-41.57.56-48.89-.05a38.44,38.44,0,0,1-10.3-2.36,6.14,6.14,0,0,0,.21,1.64c.48,2.4,3.85,4.57,7,4.57h49.46S556.24,471.17,557,468.05Z" style="fill:#fff;stroke:#263238;stroke-linecap:round;stroke-linejoin:round"></path><path d="M515.14,159.23s-4.8,15.36-5.76,24.33-6.4,55.38-8,63.07S503,255,503,255s.32,21.13-.64,30.09,3.2,55.39,5.44,75.88,8,25.93,9.28,31.37,10.25,30.09,10.25,31,3.2,7.69,2.24,9.29-4.16.32-4.16,3.84-.32,6.4-.32,6.4,14.4,4.81,19.85,5.77a27.9,27.9,0,0,0,9,.32,32,32,0,0,0,3.84-8.33,37.37,37.37,0,0,0,1.92-15c-.32-4.49-1.28-12.49-1.28-15V398.05c0-3.84.32-13.76.32-13.76l5.44-59.87c.32-3.52,1.28-9,2.24-11.2s7-24.33,6.73-34.9-1.6-21.45-1.6-21.45,2.56-6.4,1.92-17.29-1.28-29.45-1.28-30.41,1.6-32.65-4.48-45.78-21.77-20.81-21.77-20.81Z" style="fill:#92E3A9;stroke:#263238;stroke-linecap:round;stroke-linejoin:round"></path><path d="M555.12,148.56c-4,.14-12.66,1.9-20.45,13.23-10.56,15.37-12.48,33.29-12.48,35.21s-3.53,61.15-3.53,61.15L528.91,261s.32-49,4.48-68.83,9.92-28.49,16-32.65c4.32-3,10.08-3.81,13.06-4.06A51.71,51.71,0,0,0,555.12,148.56Z" style="fill:#fff;stroke:#263238;stroke-linecap:round;stroke-linejoin:round"></path><polygon points="521.54 199.57 507.78 197.32 506.18 211.41 521.54 213.97 521.54 199.57" style="fill:#fff;stroke:#263238;stroke-linecap:round;stroke-linejoin:round"></polygon><path d="M518.34,151.22s-9.6,6.41-10.24,8.33-2.24,12.8-2.24,12.8l13.76-9Z" style="fill:#92E3A9;stroke:#263238;stroke-linecap:round;stroke-linejoin:round"></path><path d="M493.94,112.53s-1.38,5.46-1,6.47,4,5.11,4,5.11-4.76,7.66-3.42,10,4.69,1.67,4.69,1.67,3.34,12.39,7.36,13.39,7-2.34,7-2.34l7,10,22.75-19.41-2.67-10s2.67-8.7,2.67-16.07-1-9.7-1-9.7l-48,9.21Z" style="fill:#fff;stroke:#263238;stroke-linecap:round;stroke-linejoin:round"></path><path d="M541.31,101.65l-29.58,7.15-.21.88s0,3.35,2,5,5.69,1.67,5.69,1.67,0,4.36,3,2.68,0-5.69,5-6.36,7.37,3.35,6,8-3.68,6.35-3.68,6.35,6.69,1.68,10,.34c0,0,2.67-8.7,2.67-16.07S541.31,101.65,541.31,101.65Z" style="fill:#263238;stroke:#263238;stroke-linecap:round;stroke-linejoin:round"></path><path d="M502.09,122.22c.48,1.3.45,2.51-.07,2.7s-1.33-.71-1.81-2-.45-2.51.07-2.7S501.61,120.92,502.09,122.22Z" style="fill:#263238"></path><path d="M500.66,125.62s1.51,2.65,6.81,2.09" style="fill:none;stroke:#263238;stroke-linecap:round;stroke-linejoin:round"></path><path d="M498.14,135.78a6,6,0,0,0-.51,2.91,2.89,2.89,0,0,0,2.84,3.21c1.51,0,8.71,2.09,9.27-1.13s-1.7-4-4.73-5.87S498.64,135.72,498.14,135.78Z" style="fill:#263238;stroke:#263238;stroke-linecap:round;stroke-linejoin:round"></path><path d="M488.41,106.4s0,1.45-2.4,5.29-7.68,8.64-7.68,8.64,20.16-1,25.93-3.84,13-6.24,15.36-6.72S545.08,104,545.08,104l-3.85-6.24-4.66-15.42a10.56,10.56,0,0,0-7.29-7.16,46.48,46.48,0,0,0-18.78-1.43c-12.49,1.92-21.13,8.64-22.57,15.37S488.41,106.4,488.41,106.4Z" style="fill:#fff;stroke:#263238;stroke-linecap:round;stroke-linejoin:round"></path><path d="M542,132.34s-29.13,26.89-29.77,27.85S519,173.47,519,173.47L550,142.26Z" style="fill:#92E3A9;stroke:#263238;stroke-linecap:round;stroke-linejoin:round"></path><path d="M467,188s-3.51-.26-3.88,1.89,2.5,8.36,4.8,8.83,2.76-.53,2.57-1.53S467,188,467,188Z" style="fill:#fff;stroke:#263238;stroke-linecap:round;stroke-linejoin:round"></path><path d="M471.19,186.87S467.78,186,467,188s.89,8.67,3.06,9.57,2.81,0,2.81-1S471.19,186.87,471.19,186.87Z" style="fill:#fff;stroke:#263238;stroke-linecap:round;stroke-linejoin:round"></path><path d="M475,189.22s-1.76-4.4-3.81-2.35.29,7.34,1.17,9.39,3.23,2.64,3.23-1.17A23.49,23.49,0,0,0,475,189.22Z" style="fill:#fff;stroke:#263238;stroke-linecap:round;stroke-linejoin:round"></path><path d="M478.24,190.05s-3.06,6.12-2,8.16,2.68,1,4.08-1,3.32-5.74,2.68-8.16S479.39,187.75,478.24,190.05Z" style="fill:#fff;stroke:#263238;stroke-linecap:round;stroke-linejoin:round"></path><path d="M477,177.81a30.91,30.91,0,0,0-.8,6.7l-.1,11.41,1-.13.92-11.15a31.69,31.69,0,0,0,0-5.51l-.13-1.26a.49.49,0,0,0-.88-.06Z" style="fill:#fff;stroke:#263238;stroke-linecap:round;stroke-linejoin:round"></path><polygon points="484.73 214.29 478.33 193.16 449.19 190.6 464.88 230.62 491.13 236.38 484.73 214.29" style="fill:#263238;stroke:#263238;stroke-linecap:round;stroke-linejoin:round"></polygon><polygon points="458.74 191.82 461.38 196.92 470.71 197.45 468.95 192.7 466.31 192.17 465.78 190.59 467.89 190.94 467.89 189 458.39 188.65 458.92 190.41 461.91 190.41 461.91 191.99 458.74 191.82" style="fill:#fff;stroke:#263238;stroke-linecap:round;stroke-linejoin:round"></polygon><path d="M500.53,226.19s-5.28-4.4-5.58-5.28-2.35-2.93-4.11-5-7.33-4.69-7.33-4.69l2.05,6.45s-7.92-2.34-9.68-2.34-1.76,1.76-1.47,4.69a5.4,5.4,0,0,0,3.23,4.11,17,17,0,0,0,.88,3.81c.88,2.94,1.17,5.58,4.11,7.34s4.69,1.76,7.33,1.76a27.93,27.93,0,0,0,5.29-.59l5.57,1.47Z" style="fill:#fff;stroke:#263238;stroke-linecap:round;stroke-linejoin:round"></path><path d="M548.76,177.48a27.4,27.4,0,0,0-4.17,9.92c-1.28,6.08-1.92,37.14-1.92,37.14s-3.84-.64-4.16.64-.64,2.88-.64,2.88l-38.74-2.88-1.28,18.89s29.78,5.44,40.66,7,20.49,3.52,24.65-.32,8-31.06,9.29-40.66,4.16-25.61,1.92-35.22-9.29-13.76-12.49-14.08" style="fill:#92E3A9;stroke:#263238;stroke-linecap:round;stroke-linejoin:round"></path><path d="M538.83,227.42s0,3.84,4.48,9.6" style="fill:none;stroke:#263238;stroke-linecap:round;stroke-linejoin:round"></path><path d="M544.27,226.46s.65.64,4.81,1.6" style="fill:none;stroke:#263238;stroke-linecap:round;stroke-linejoin:round"></path><path d="M568.61,257.83s-5.45,2.24-18.89,2.24" style="fill:none;stroke:#263238;stroke-linecap:round;stroke-linejoin:round"></path><path d="M572.45,279.28A100.85,100.85,0,0,1,559,281.2l-6.08.32s2.24,20.17,3.52,24,6.4,4.8,6.4,4.8" style="fill:none;stroke:#263238;stroke-linecap:round;stroke-linejoin:round"></path><path d="M512.78,301.36c1.43,7.63,3,16.39,3.64,21.14,1.28,9.6,0,33.29,1.6,43.86s4.81,29.45,6.41,36.82,4.8,23.05,4.8,23.05l.32,6.4" style="fill:none;stroke:#263238;stroke-linecap:round;stroke-linejoin:round"></path><path d="M510,287s.79,4,1.83,9.46" style="fill:none;stroke:#263238;stroke-linecap:round;stroke-linejoin:round"></path></g><g id="freepik--character-1--inject-63"><polygon points="288.97 106.57 283.49 121.64 273.08 122.73 273.36 126.02 282.94 126.57 291.71 135.88 294.17 134.24 287.6 122.73 291.43 107.67 288.97 106.57" style="fill:#263238;stroke:#263238;stroke-linecap:round;stroke-linejoin:round"></polygon><path d="M288.42,123.42c0,3.25-1.59,5.89-3.56,5.89s-3.56-2.64-3.56-5.89,1.59-5.89,3.56-5.89S288.42,120.16,288.42,123.42Z" style="fill:#263238;stroke:#263238;stroke-linecap:round;stroke-linejoin:round"></path><path d="M285,99.45c-9.15,0-16.57,10.55-16.57,23.56s7.42,23.55,16.57,23.55S301.57,136,301.57,123,294.15,99.45,285,99.45Zm0,38.62c-5.86,0-10.6-6.74-10.6-15.06s4.74-15.07,10.6-15.07,10.6,6.75,10.6,15.07S290.85,138.07,285,138.07Z" style="fill:#263238;stroke:#263238;stroke-linecap:round;stroke-linejoin:round"></path><path d="M256.74,126.51s5.34-11.33,6-12.66,7.34-10.34,8.34-11.34,5.84-.32,5.84-.32-3.51,4.32-3.84,5.32,2.33,7.67-1.34,12-10,15-10,15Z" style="fill:#fff;stroke:#263238;stroke-linecap:round;stroke-linejoin:round"></path><path d="M267.74,112.51l5.34-5s10-3.33,10-1.33-3,3.67-5.34,5.33-4.66,3-4.66,3,2.33,6-3.34,9-7.33,3-7.33,3" style="fill:#fff;stroke:#263238;stroke-linecap:round;stroke-linejoin:round"></path><path d="M203.74,157.51l20.34,3,31.66-36.33,10.67,12s-25.67,38.67-28.33,44.33-5,6.67-8.34,7.34-22-2.67-22-2.67Z" style="fill:#92E3A9;stroke:#263238;stroke-linecap:round;stroke-linejoin:round"></path><polygon points="241.75 140.85 255.75 151.85 250.41 160.85 235.08 148.51 241.75 140.85" style="fill:#fff;stroke:#263238;stroke-linecap:round;stroke-linejoin:round"></polygon><path d="M209,104s3.65,4.21,3.8,5.24-1.23,6.28-1.23,6.28,7.61,4.65,7.47,7.31-3.39,3.57-3.39,3.57,2.55,12.42-.54,15.09-8.31,2.48-8.31,2.48l-.68,10.57-28.73-7-2.1-10.06s-6.24-6.49-9.52-13-3.43-9-3.43-9l46.5-13.25Z" style="fill:#fff;stroke:#263238;stroke-linecap:round;stroke-linejoin:round"></path><path d="M162.29,115.44l29.29-6.86.58.69s1.49,3,.46,5.33-4.28,4-4.28,4,1.94,3.84-1.46,3.7-2.54-5-7.27-3.38-5,6.23-1.74,9.77,6.08,4,6.08,4-5.16,4.46-8.71,4.76c0,0-6.24-6.49-9.52-13S162.29,115.44,162.29,115.44Z" style="fill:#263238;stroke:#263238;stroke-linecap:round;stroke-linejoin:round"></path><path d="M211.1,96.09s.65,1.27,4.48,3.59,10.63,4.21,10.63,4.21S208,112,201.6,112.05s-14.22.26-16.56.9-25,6.24-25,6.24l.61-7.22-2.75-15.69a10.45,10.45,0,0,1,3.25-9.56,45.92,45.92,0,0,1,15.95-9.63c11.87-3.86,22.5-1.77,26.76,3.52S211.1,96.09,211.1,96.09Z" style="fill:#fff;stroke:#263238;stroke-linecap:round;stroke-linejoin:round"></path><polygon points="183.75 119.5 203.04 117.79 202.62 113.59 182.33 118.49 183.75 119.5" style="fill:#263238;stroke:#263238;stroke-linecap:round;stroke-linejoin:round"></polygon><path d="M201.76,116h0a3.4,3.4,0,0,0,3.15,2.58l8.53.4a1.65,1.65,0,0,0,1.72-1.85l.15-.34a5.45,5.45,0,0,0-.73-5.57l-.17-.21a1.65,1.65,0,0,0-2.08-1.4l-8.17,2.27A3.41,3.41,0,0,0,201.76,116Z" style="fill:#263238;stroke:#263238;stroke-linecap:round;stroke-linejoin:round"></path><path d="M171.08,447.51s-1.67,11-1.34,16.67,1.34,6.67,1.34,6.67h48.66s0-6.67-3.66-10a83.56,83.56,0,0,0-12.34-8.67c-3.33-2-11-7.33-11-7.33Z" style="fill:#fff;stroke:#263238;stroke-linecap:round;stroke-linejoin:round"></path><path d="M182.08,354.51s.33,21.67-2.34,31-9.66,27.34-10,39.67-.66,27,.34,27,3,1,5.33.67,9.33-.67,9.33-.67l4-.67V435.18c0-14.67-4.66-27-4-39.67s7.34-21,4-33.33S182.08,350.18,182.08,354.51Z" style="fill:#92E3A9;stroke:#263238;stroke-linecap:round;stroke-linejoin:round"></path><path d="M216.74,446.51s6.34,6.67,9.34,8,15,6,16,6.67,6,3.33,6,6a11.46,11.46,0,0,1-1,4.67H186.74a12.47,12.47,0,0,1-1-6.67c.34-4.33,1.34-14,1.34-14s6-6.67,13.66-8S216.74,446.51,216.74,446.51Z" style="fill:#fff;stroke:#263238;stroke-linecap:round;stroke-linejoin:round"></path><path d="M186.74,471.85h60.34a11.5,11.5,0,0,0,.95-3.67H185.78A10.41,10.41,0,0,0,186.74,471.85Z" style="fill:#fff;stroke:#263238;stroke-linecap:round;stroke-linejoin:round"></path><path d="M173.41,150.85s-9.33,10.33-14.67,22.66-4.33,36.67-2.33,44,5.33,16,4.67,24.34-3.67,13.33-1.67,17a58.47,58.47,0,0,0,4,6.33s-4,11.33-1.33,21.67,5.66,21,10.33,23.33l4.67,2.33s2.33,26.34,5,42,3,27.67-2,39.67,1,31,2.33,36.67a92.26,92.26,0,0,1,2.33,17.66c0,4.34-3.33,5,1,7.67s5.34,3.33,8.34,1.67,16.33-7.67,18.66-8,6,1.66,7.34-3.34-2-13-2.67-15-3.33-8.33-3.33-11.33,2.66-33.33,8-47,5.33-32.33,5.33-43.33,3.67-30.67,4-32.67,4-21.33,4.33-34.67a123.09,123.09,0,0,0-3.66-34c-2.34-8.66-4-18-4-18s-9-35.66-14.67-42.66-4.67-6-13.33-9.34S173.41,150.85,173.41,150.85Z" style="fill:#92E3A9;stroke:#263238;stroke-linecap:round;stroke-linejoin:round"></path><path d="M166.74,159.18s9.67-3,24.67-2,21.33,10,24.33,14.33,11,44.34,12.34,57a148.74,148.74,0,0,1,1,20l-4.67,2.67s-.67-20-3-37.33-6.67-37-15-45.34-19.33-8.33-25-7.66-19.67,7.33-19.67,7.33Z" style="fill:#fff;stroke:#263238;stroke-linecap:round;stroke-linejoin:round"></path><polygon points="173.83 143.18 208.33 153.18 212.58 165.68 171.08 151.68 173.83 143.18" style="fill:#92E3A9;stroke:#263238;stroke-linecap:round;stroke-linejoin:round"></polygon><path d="M196.74,202.85s-12,4.66-22.33,7.33" style="fill:none;stroke:#263238;stroke-linecap:round;stroke-linejoin:round"></path><path d="M203.08,201.85s-10.34,7.33-23,16" style="fill:none;stroke:#263238;stroke-linecap:round;stroke-linejoin:round"></path><path d="M179.22,227.58a52.49,52.49,0,0,1-8.14,5.6" style="fill:none;stroke:#263238;stroke-linecap:round;stroke-linejoin:round"></path><path d="M197.08,210.85s-7.57,8-15.45,14.73" style="fill:none;stroke:#263238;stroke-linecap:round;stroke-linejoin:round"></path><path d="M204.9,241a60.52,60.52,0,0,0,4.51-6.14" style="fill:none;stroke:#263238;stroke-linecap:round;stroke-linejoin:round"></path><path d="M181.41,257.85s8.67.66,12-3.34c1.65-2,4.85-5.59,8-9.34" style="fill:none;stroke:#263238;stroke-linecap:round;stroke-linejoin:round"></path><path d="M186.56,261.07c3.88-.54,7.36-1.26,9.18-2.22,5.67-3,10.67-9,10.67-10" style="fill:none;stroke:#263238;stroke-linecap:round;stroke-linejoin:round"></path><path d="M168.41,262.51s6.79-.21,13.77-.92" style="fill:none;stroke:#263238;stroke-linecap:round;stroke-linejoin:round"></path><path d="M193.84,290.68c.39,5.43.67,13.74-1.1,15.5-2.66,2.67-11.66,2.67-11.66,2.67" style="fill:none;stroke:#263238;stroke-linecap:round;stroke-linejoin:round"></path><path d="M193.41,285.85s.1.82.22,2.15" style="fill:none;stroke:#263238;stroke-linecap:round;stroke-linejoin:round"></path><path d="M205.41,256.18s11.33-2.33,16.67-5.67" style="fill:none;stroke:#263238;stroke-linecap:round;stroke-linejoin:round"></path><path d="M215.08,130.18s-4.34,1.33-5.67-.33" style="fill:none;stroke:#263238;stroke-linecap:round;stroke-linejoin:round"></path><path d="M226,277.65c-1-3.23-1.9-5.47-1.9-5.47" style="fill:none;stroke:#263238;stroke-linecap:round;stroke-linejoin:round"></path><path d="M227.74,317.51s1-17,1-25.33A43.54,43.54,0,0,0,227.23,282" style="fill:none;stroke:#263238;stroke-linecap:round;stroke-linejoin:round"></path><path d="M284.74,151.51a76.77,76.77,0,0,1,0-9c.34-3,3.67-8,4.34-11.66s-.67-7,2-7,1.66,6.66,1.66,6.66,4.67-4.33,6.67-6.33,3.67-2.67,4.67-.67a4.83,4.83,0,0,1,0,4s1.66,4.34,2.33,6.67a11.54,11.54,0,0,1-1,9.67c-2.33,4.33-3.33,7-6.33,8.66a35.66,35.66,0,0,0-8,7c-.67,1-2,2.67-2,2.67Z" style="fill:#fff;stroke:#263238;stroke-linecap:round;stroke-linejoin:round"></path><path d="M164.41,171.51a23.36,23.36,0,0,1,21.33-10.33c14.67,1,24.34,8.67,25.67,9.33s27.33,12.34,27.33,12.34l46.34-34,9.66,13.66s-37.33,36.67-41.33,41-11,7.34-13.33,7.67-42-6.67-45.67-7-21.33-5-21.33-5" style="fill:#92E3A9;stroke:#263238;stroke-linecap:round;stroke-linejoin:round"></path><polygon points="257.08 169.18 271.08 186.18 277.75 179.18 265.75 163.51 257.08 169.18" style="fill:#fff;stroke:#263238;stroke-linecap:round;stroke-linejoin:round"></polygon></g></svg>